# Exported from Wings 3D 2.2.1
mtllib ScanMachine.mtl
o Cube1_extract3
#16 vertices, 16 faces
v -3.3440000e-2 -0.28133333 -2.62800000
v -3.3440000e-2 -0.28133333 2.62800000
v -3.3440000e-2 2.95866667 -2.62800000
v -3.3440000e-2 2.95866667 2.62800000
v 3.3440000e-2 -0.28133333 -2.62800000
v 3.3440000e-2 -0.28133333 2.62800000
v 3.3440000e-2 2.95866667 -2.62800000
v 3.3440000e-2 2.95866667 2.62800000
v -0.17600000 -0.16400000 -2.51066667
v -0.17600000 -0.16400000 2.51066667
v -0.17600000 2.84133333 -2.51066667
v -0.17600000 2.84133333 2.51066667
v 0.17600000 -0.16400000 -2.51066667
v 0.17600000 -0.16400000 2.51066667
v 0.17600000 2.84133333 -2.51066667
v 0.17600000 2.84133333 2.51066667
vn -0.33755470 -0.94130591 0.0000000e+0
vn -0.33755470 0.0000000e+0 -0.94130591
vn -0.33755470 -0.94130591 0.0000000e+0
vn -0.33755470 0.0000000e+0 -0.94130591
vn -0.33755470 -0.94130591 0.0000000e+0
vn -0.33755470 0.0000000e+0 0.94130591
vn -0.33755470 -0.94130591 0.0000000e+0
vn -0.33755470 0.0000000e+0 0.94130591
vn -0.33755470 0.94130591 0.0000000e+0
vn -0.33755470 0.0000000e+0 -0.94130591
vn -0.33755470 0.0000000e+0 -0.94130591
vn -0.33755470 0.94130591 0.0000000e+0
vn -0.33755470 0.94130591 0.0000000e+0
vn -0.33755470 0.0000000e+0 0.94130591
vn -0.33755470 0.94130591 0.0000000e+0
vn -0.33755470 0.0000000e+0 0.94130591
vn 0.33755470 -0.94130591 0.0000000e+0
vn 0.33755470 0.0000000e+0 -0.94130591
vn 0.33755470 0.0000000e+0 -0.94130591
vn 0.33755470 -0.94130591 0.0000000e+0
vn 0.33755470 -0.94130591 0.0000000e+0
vn 0.33755470 0.0000000e+0 0.94130591
vn 0.33755470 -0.94130591 0.0000000e+0
vn 0.33755470 0.0000000e+0 0.94130591
vn 0.33755470 0.94130591 0.0000000e+0
vn 0.33755470 0.0000000e+0 -0.94130591
vn 0.33755470 0.0000000e+0 -0.94130591
vn 0.33755470 0.94130591 0.0000000e+0
vn 0.33755470 0.94130591 0.0000000e+0
vn 0.33755470 0.0000000e+0 0.94130591
vn 0.33755470 0.0000000e+0 0.94130591
vn 0.33755470 0.94130591 0.0000000e+0
vn 0.0000000e+0 1.00000000 0.0000000e+0
vn 0.0000000e+0 0.0000000e+0 1.00000000
vn -0.63548448 -0.77211364 0.0000000e+0
vn -0.63548448 0.0000000e+0 -0.77211364
vn 0.0000000e+0 1.00000000 0.0000000e+0
vn 0.0000000e+0 0.0000000e+0 -1.00000000
vn -0.63548448 -0.77211364 0.0000000e+0
vn -0.63548448 0.0000000e+0 0.77211364
vn 0.0000000e+0 -1.00000000 0.0000000e+0
vn 0.0000000e+0 0.0000000e+0 1.00000000
vn -0.63548448 0.0000000e+0 -0.77211364
vn -0.63548448 0.77211364 0.0000000e+0
vn 0.0000000e+0 -1.00000000 0.0000000e+0
vn 0.0000000e+0 0.0000000e+0 -1.00000000
vn -0.63548448 0.77211364 0.0000000e+0
vn -0.63548448 0.0000000e+0 0.77211364
vn 0.0000000e+0 1.00000000 0.0000000e+0
vn 0.0000000e+0 0.0000000e+0 1.00000000
vn 0.63548448 0.0000000e+0 -0.77211364
vn 0.63548448 -0.77211364 0.0000000e+0
vn 0.0000000e+0 1.00000000 0.0000000e+0
vn 0.0000000e+0 0.0000000e+0 -1.00000000
vn 0.63548448 -0.77211364 0.0000000e+0
vn 0.63548448 0.0000000e+0 0.77211364
vn 0.0000000e+0 -1.00000000 0.0000000e+0
vn 0.0000000e+0 0.0000000e+0 1.00000000
vn 0.63548448 0.0000000e+0 -0.77211364
vn 0.63548448 0.77211364 0.0000000e+0
vn 0.0000000e+0 -1.00000000 0.0000000e+0
vn 0.0000000e+0 0.0000000e+0 -1.00000000
vn 0.63548448 0.0000000e+0 0.77211364
vn 0.63548448 0.77211364 0.0000000e+0
g Cube1_extract3_default
usemtl default
s 1
f 1//4 9//36 11//43 3//11
f 2//6 6//22 8//30 4//14
f 3//10 7//26 5//18 1//2
f 4//16 12//48 10//40 2//8
f 6//24 14//56 16//63 8//31
f 7//27 15//59 13//51 5//19
f 10//37 14//53 13//49 9//33
f 11//41 15//57 16//61 12//45
s 2
f 1//1 5//17 6//21 2//5
f 2//7 10//39 9//35 1//3
f 3//12 11//44 12//47 4//15
f 4//13 8//29 7//25 3//9
f 5//20 13//52 14//55 6//23
f 8//32 16//64 15//60 7//28
f 9//34 13//50 15//58 11//42
f 12//46 16//62 14//54 10//38
o Cube1_extract2
#16 vertices, 16 faces
v -0.17600000 -0.16400000 -2.51066667
v -0.17600000 -0.16400000 2.51066667
v -0.17600000 2.84133333 -2.51066667
v -0.17600000 2.84133333 2.51066667
v 0.17600000 -0.16400000 -2.51066667
v 0.17600000 -0.16400000 2.51066667
v 0.17600000 2.84133333 -2.51066667
v 0.17600000 2.84133333 2.51066667
v -0.17600000 7.0666667e-2 -2.27600000
v -0.17600000 7.0666667e-2 2.27600000
v -0.17600000 2.60666667 -2.27600000
v -0.17600000 2.60666667 2.27600000
v 0.17600000 7.0666667e-2 -2.27600000
v 0.17600000 7.0666667e-2 2.27600000
v 0.17600000 2.60666667 -2.27600000
v 0.17600000 2.60666667 2.27600000
vn 0.0000000e+0 -1.00000000 0.0000000e+0
vn 0.0000000e+0 0.0000000e+0 -1.00000000
vn -1.00000000 0.0000000e+0 0.0000000e+0
vn -1.00000000 0.0000000e+0 0.0000000e+0
vn 0.0000000e+0 -1.00000000 0.0000000e+0
vn 0.0000000e+0 0.0000000e+0 1.00000000
vn -1.00000000 0.0000000e+0 0.0000000e+0
vn -1.00000000 0.0000000e+0 0.0000000e+0
vn 0.0000000e+0 1.00000000 0.0000000e+0
vn 0.0000000e+0 0.0000000e+0 -1.00000000
vn -1.00000000 0.0000000e+0 0.0000000e+0
vn -1.00000000 0.0000000e+0 0.0000000e+0
vn 0.0000000e+0 1.00000000 0.0000000e+0
vn 0.0000000e+0 0.0000000e+0 1.00000000
vn -1.00000000 0.0000000e+0 0.0000000e+0
vn -1.00000000 0.0000000e+0 0.0000000e+0
vn 0.0000000e+0 -1.00000000 0.0000000e+0
vn 0.0000000e+0 0.0000000e+0 -1.00000000
vn 1.00000000 0.0000000e+0 0.0000000e+0
vn 1.00000000 0.0000000e+0 0.0000000e+0
vn 0.0000000e+0 -1.00000000 0.0000000e+0
vn 0.0000000e+0 0.0000000e+0 1.00000000
vn 1.00000000 0.0000000e+0 0.0000000e+0
vn 1.00000000 0.0000000e+0 0.0000000e+0
vn 0.0000000e+0 1.00000000 0.0000000e+0
vn 0.0000000e+0 0.0000000e+0 -1.00000000
vn 1.00000000 0.0000000e+0 0.0000000e+0
vn 1.00000000 0.0000000e+0 0.0000000e+0
vn 0.0000000e+0 1.00000000 0.0000000e+0
vn 0.0000000e+0 0.0000000e+0 1.00000000
vn 1.00000000 0.0000000e+0 0.0000000e+0
vn 1.00000000 0.0000000e+0 0.0000000e+0
vn 0.0000000e+0 1.00000000 0.0000000e+0
vn 0.0000000e+0 0.0000000e+0 1.00000000
vn -1.00000000 0.0000000e+0 0.0000000e+0
vn -1.00000000 0.0000000e+0 0.0000000e+0
vn 0.0000000e+0 1.00000000 0.0000000e+0
vn 0.0000000e+0 0.0000000e+0 -1.00000000
vn -1.00000000 0.0000000e+0 0.0000000e+0
vn -1.00000000 0.0000000e+0 0.0000000e+0
vn 0.0000000e+0 -1.00000000 0.0000000e+0
vn 0.0000000e+0 0.0000000e+0 1.00000000
vn -1.00000000 0.0000000e+0 0.0000000e+0
vn -1.00000000 0.0000000e+0 0.0000000e+0
vn 0.0000000e+0 -1.00000000 0.0000000e+0
vn 0.0000000e+0 0.0000000e+0 -1.00000000
vn -1.00000000 0.0000000e+0 0.0000000e+0
vn -1.00000000 0.0000000e+0 0.0000000e+0
vn 0.0000000e+0 1.00000000 0.0000000e+0
vn 0.0000000e+0 0.0000000e+0 1.00000000
vn 1.00000000 0.0000000e+0 0.0000000e+0
vn 1.00000000 0.0000000e+0 0.0000000e+0
vn 0.0000000e+0 1.00000000 0.0000000e+0
vn 0.0000000e+0 0.0000000e+0 -1.00000000
vn 1.00000000 0.0000000e+0 0.0000000e+0
vn 1.00000000 0.0000000e+0 0.0000000e+0
vn 0.0000000e+0 -1.00000000 0.0000000e+0
vn 0.0000000e+0 0.0000000e+0 1.00000000
vn 1.00000000 0.0000000e+0 0.0000000e+0
vn 1.00000000 0.0000000e+0 0.0000000e+0
vn 0.0000000e+0 -1.00000000 0.0000000e+0
vn 0.0000000e+0 0.0000000e+0 -1.00000000
vn 1.00000000 0.0000000e+0 0.0000000e+0
vn 1.00000000 0.0000000e+0 0.0000000e+0
g Cube1_extract2_default
usemtl default
s 1
f 18//70 22//86 24//94 20//78
f 19//74 23//90 21//82 17//66
f 26//101 30//117 29//113 25//97
f 27//105 31//121 32//125 28//109
s 2
f 17//65 21//81 22//85 18//69
f 20//77 24//93 23//89 19//73
f 25//98 29//114 31//122 27//106
f 28//110 32//126 30//118 26//102
s 3
f 17//68 25//100 27//107 19//75
f 18//71 26//103 25//99 17//67
f 19//76 27//108 28//111 20//79
f 20//80 28//112 26//104 18//72
f 21//84 29//116 30//119 22//87
f 22//88 30//120 32//127 24//95
f 23//91 31//123 29//115 21//83
f 24//96 32//128 31//124 23//92
o Cube1
#8 vertices, 6 faces
v -0.17600000 7.0666667e-2 -2.27600000
v -0.17600000 7.0666667e-2 2.27600000
v -0.17600000 2.60666667 -2.27600000
v -0.17600000 2.60666667 2.27600000
v 0.17600000 7.0666667e-2 -2.27600000
v 0.17600000 7.0666667e-2 2.27600000
v 0.17600000 2.60666667 -2.27600000
v 0.17600000 2.60666667 2.27600000
vn 0.0000000e+0 -1.00000000 0.0000000e+0
vn 0.0000000e+0 0.0000000e+0 -1.00000000
vn -1.00000000 0.0000000e+0 0.0000000e+0
vn 0.0000000e+0 -1.00000000 0.0000000e+0
vn 0.0000000e+0 0.0000000e+0 1.00000000
vn -1.00000000 0.0000000e+0 0.0000000e+0
vn 0.0000000e+0 1.00000000 0.0000000e+0
vn 0.0000000e+0 0.0000000e+0 -1.00000000
vn -1.00000000 0.0000000e+0 0.0000000e+0
vn 0.0000000e+0 1.00000000 0.0000000e+0
vn 0.0000000e+0 0.0000000e+0 1.00000000
vn -1.00000000 0.0000000e+0 0.0000000e+0
vn 0.0000000e+0 -1.00000000 0.0000000e+0
vn 0.0000000e+0 0.0000000e+0 -1.00000000
vn 1.00000000 0.0000000e+0 0.0000000e+0
vn 0.0000000e+0 -1.00000000 0.0000000e+0
vn 0.0000000e+0 0.0000000e+0 1.00000000
vn 1.00000000 0.0000000e+0 0.0000000e+0
vn 0.0000000e+0 1.00000000 0.0000000e+0
vn 0.0000000e+0 0.0000000e+0 -1.00000000
vn 1.00000000 0.0000000e+0 0.0000000e+0
vn 0.0000000e+0 1.00000000 0.0000000e+0
vn 0.0000000e+0 0.0000000e+0 1.00000000
vn 1.00000000 0.0000000e+0 0.0000000e+0
g Cube1_default
usemtl default
s 1
f 34//134 36//140 35//137 33//131
f 37//143 39//149 40//152 38//146
s 2
f 34//133 38//145 40//151 36//139
f 35//136 39//148 37//142 33//130
s 3
f 33//129 37//141 38//144 34//132
f 36//138 40//150 39//147 35//135
